<svg xmlns="http://www.w3.org/2000/svg" viewBox="0 0 96 96" width="96" height="96">
<defs>
  <linearGradient id="g" x1="0" y1="0" x2="0" y2="1">
    <stop offset="0" stop-color="#fff" stop-opacity="0.15"/>
    <stop offset="1" stop-color="#000" stop-opacity="0.15"/>
  </linearGradient>
  
</defs>
  <rect x="4" y="4" width="88" height="88" rx="4" fill="#5A4A38" opacity="0.9"/>
  <rect x="8" y="8" width="80" height="80" rx="2" fill="#C5A688" opacity="0.95"/>
  <line x1="8" y1="72" x2="88" y2="72" stroke="#6B8E23" stroke-width="1" opacity="0.3"/>
  <ellipse cx="48" cy="44" rx="14" ry="19" fill="#E8C4A0"/>
  <path d="M 34,46 Q 48,17 63,46 L 63,31 Q 48,27 34,31 Z" fill="#A08050"/>
  <circle cx="42" cy="42" r="2.5" fill="#fff"/>
  <circle cx="54" cy="42" r="2.5" fill="#fff"/>
  <circle cx="42" cy="42" r="1.5" fill="#4A6B4A"/>
  <circle cx="54" cy="42" r="1.5" fill="#4A6B4A"/>
  <line x1="39" y1="38" x2="45" y2="38" stroke="#A08050" stroke-width="1"/>
  <line x1="51" y1="38" x2="57" y2="38" stroke="#A08050" stroke-width="1"/>
  <line x1="48" y1="44" x2="48" y2="50" stroke="#B99C80" stroke-width="1"/>
  <path d="M 42,56 Q 48,59 54,56" fill="none" stroke="#8B7560" stroke-width="1.5"/>
  <rect x="4" y="4" width="88" height="88" rx="4" fill="none" stroke="#6B8E23" stroke-width="2"/>
  <polygon points="4,4 20,4 4,20" fill="#6B8E23"/>
  <polygon points="92,92 76,92 92,76" fill="#6B8E23"/>
</svg>