<svg xmlns="http://www.w3.org/2000/svg" viewBox="0 0 128 128" width="128" height="128">
<defs>
  <linearGradient id="g" x1="0" y1="0" x2="0" y2="1">
    <stop offset="0" stop-color="#fff" stop-opacity="0.15"/>
    <stop offset="1" stop-color="#000" stop-opacity="0.15"/>
  </linearGradient>
  
</defs>
  <ellipse cx="64" cy="104" rx="40" ry="10" fill="#000" opacity="0.25"/>
  <rect x="40" y="69" width="49" height="27" fill="#8B8B7A"/>
  <rect x="40" y="65" width="4" height="4" fill="#4A4A3A"/>
  <rect x="48" y="65" width="4" height="4" fill="#4A4A3A"/>
  <rect x="56" y="65" width="4" height="4" fill="#4A4A3A"/>
  <rect x="64" y="65" width="4" height="4" fill="#4A4A3A"/>
  <rect x="72" y="65" width="4" height="4" fill="#4A4A3A"/>
  <rect x="80" y="65" width="4" height="4" fill="#4A4A3A"/>
  <rect x="88" y="65" width="4" height="4" fill="#4A4A3A"/>
  <rect x="40" y="69" width="49" height="4" fill="#4A4A3A"/>
  <rect x="71" y="85" width="6" height="6" fill="#ABAB9A" opacity="0.4"/>
  <rect x="58" y="77" width="6" height="6" fill="#ABAB9A" opacity="0.4"/>
  <rect x="53" y="88" width="6" height="6" fill="#ABAB9A" opacity="0.4"/>
  <rect x="67" y="77" width="6" height="6" fill="#ABAB9A" opacity="0.4"/>
  <rect x="58" y="82" width="12" height="14" fill="#4A4A3A" opacity="0.6"/>

</svg>