<svg xmlns="http://www.w3.org/2000/svg" viewBox="0 0 128 128" width="128" height="128">
<defs>
  <linearGradient id="g" x1="0" y1="0" x2="0" y2="1">
    <stop offset="0" stop-color="#fff" stop-opacity="0.15"/>
    <stop offset="1" stop-color="#000" stop-opacity="0.15"/>
  </linearGradient>
  
</defs>
  <ellipse cx="64" cy="104" rx="40" ry="10" fill="#000" opacity="0.25"/>
  <rect x="32" y="52" width="65" height="44" fill="#8B4513"/>
  <rect x="32" y="48" width="4" height="4" fill="#2F2F2F"/>
  <rect x="40" y="48" width="4" height="4" fill="#2F2F2F"/>
  <rect x="48" y="48" width="4" height="4" fill="#2F2F2F"/>
  <rect x="56" y="48" width="4" height="4" fill="#2F2F2F"/>
  <rect x="64" y="48" width="4" height="4" fill="#2F2F2F"/>
  <rect x="72" y="48" width="4" height="4" fill="#2F2F2F"/>
  <rect x="80" y="48" width="4" height="4" fill="#2F2F2F"/>
  <rect x="88" y="48" width="4" height="4" fill="#2F2F2F"/>
  <rect x="96" y="48" width="4" height="4" fill="#2F2F2F"/>
  <rect x="32" y="52" width="65" height="4" fill="#2F2F2F"/>
  <rect x="41" y="60" width="6" height="6" fill="#AB6533" opacity="0.4"/>
  <rect x="63" y="84" width="6" height="6" fill="#AB6533" opacity="0.4"/>
  <rect x="70" y="67" width="6" height="6" fill="#AB6533" opacity="0.4"/>
  <rect x="63" y="87" width="6" height="6" fill="#AB6533" opacity="0.4"/>
  <rect x="58" y="82" width="12" height="14" fill="#2F2F2F" opacity="0.6"/>
  <circle cx="89" cy="44" r="3" fill="#4A4A4A"/>

</svg>